<svg version="1.1" id="Layer_1" xmlns="http://www.w3.org/2000/svg" xmlns:xlink="http://www.w3.org/1999/xlink" x="0px" y="0px"
	 viewBox="0 0 512 512" style="enable-background:new 0 0 512 512;" xml:space="preserve">
<circle style="fill:#324A5E;" cx="256" cy="256" r="256"/>
<path style="fill:#2B3B4E;" d="M508.575,297.863L378.04,167.329l-5.992,11.669l-62.562-62.562l-129.338,170.76l-46.189,57.475
	l163.902,163.902C405.707,490.832,490.832,405.706,508.575,297.863z"/>
<path style="fill:#FC6F58;" d="M105.158,256c0-15.343,19.247-27.457,23.742-41.3c4.658-14.348-3.631-35.43,5.061-47.373
	c8.778-12.062,31.449-10.65,43.511-19.428c11.943-8.692,17.556-30.737,31.904-35.395c13.843-4.494,31.28,9.893,46.623,9.893
	s32.78-14.388,46.625-9.893c14.348,4.658,19.961,26.703,31.904,35.395c12.062,8.778,34.732,7.366,43.511,19.428
	c8.692,11.943,0.402,33.025,5.06,47.373c4.494,13.845,23.742,25.957,23.742,41.3s-19.247,27.457-23.742,41.3
	c-4.658,14.348,3.631,35.43-5.061,47.373c-8.778,12.062-31.449,10.65-43.511,19.428c-11.943,8.692-17.556,30.737-31.904,35.395
	c-13.843,4.494-31.28-9.893-46.623-9.893s-32.78,14.388-46.625,9.893c-14.348-4.658-19.961-26.703-31.904-35.395
	c-12.062-8.778-34.732-7.366-43.511-19.428c-8.692-11.943-0.402-33.025-5.06-47.373C124.406,283.455,105.158,271.343,105.158,256z"
	/>
<path style="fill:#F1543F;" d="M406.842,256c0-15.343-19.247-27.455-23.742-41.3c-4.658-14.348,3.631-35.43-5.06-47.371
	c-8.778-12.062-31.449-10.65-43.511-19.428c-11.943-8.692-17.556-30.737-31.904-35.395c-13.845-4.496-31.282,9.892-46.625,9.892
	v267.205c15.343,0,32.778,14.388,46.623,9.893c14.348-4.658,19.961-26.703,31.904-35.395c12.062-8.778,34.733-7.366,43.511-19.428
	c8.692-11.943,0.402-33.025,5.061-47.373C387.594,283.457,406.842,271.343,406.842,256z"/>
<circle style="fill:#FFFFFF;" cx="256" cy="256" r="100.848"/>
<path style="fill:#D0D1D3;" d="M356.848,256c0-55.698-45.151-100.848-100.848-100.848v201.697
	C311.698,356.848,356.848,311.698,356.848,256z"/>
<rect x="244.777" y="196.265" transform="matrix(-0.7071 -0.7071 0.7071 -0.7071 255.9722 618.0226)" style="fill:#84DBFF;" width="22.411" height="119.466"/>
<polygon style="fill:#31BAFD;" points="290.311,205.841 256,240.152 256,271.846 306.16,221.687 "/>
<path style="fill:#84DBFF;" d="M224.802,243.767c-4.984,0-9.878-2.017-13.412-5.551c-3.517-3.534-5.551-8.413-5.551-13.412
	c0-4.999,2.034-9.878,5.551-13.412c3.534-3.517,8.43-5.551,13.412-5.551c4.998,0,9.876,2.034,13.41,5.551
	c3.536,3.534,5.553,8.43,5.553,13.412c0,4.999-2.017,9.878-5.553,13.412C234.68,241.75,229.802,243.767,224.802,243.767z"/>
<path style="fill:#31BAFD;" d="M287.198,306.159c-4.984,0-9.878-2.017-13.396-5.551c-3.534-3.534-5.566-8.413-5.566-13.412
	c0-4.999,2.034-9.878,5.566-13.412c3.517-3.534,8.413-5.551,13.396-5.551c4.998,0,9.876,2.017,13.41,5.551
	c3.536,3.534,5.553,8.43,5.553,13.412s-2.017,9.878-5.553,13.412C297.074,304.142,292.195,306.159,287.198,306.159z"/>
</svg>
